<svg width="106" height="29" viewBox="0 0 106 29" fill="none" xmlns="http://www.w3.org/2000/svg">
<path fill-rule="evenodd" clip-rule="evenodd" d="M0.675781 28.1356L97.6461 28.1257L105.372 0.160156H8.55841L0.675781 28.1356ZM80.442 25.9214V2.37056H94.9347C102.693 4.31921 100.176 17.1715 94.9347 17.5582L88.2669 17.5891L85.7985 14.496V25.9254L80.442 25.9214ZM92.9189 7.33871C94.8424 7.27676 96.2048 12.1486 92.9189 12.5971L85.7985 12.5199V7.3696L92.9189 7.33871ZM54.9711 25.8943H49.1421V2.37056H59.1733L63.9849 16.6396L68.7966 2.37056H78.8428V25.8943H72.9988L72.9348 8.4682L66.9683 25.9254H63.9849H61.0016L55.0353 8.4682L54.9711 25.8943ZM47.9081 15.1558C47.9081 17.9733 47.0378 21.3475 45.0372 23.1775C43.0367 25.0077 40.4233 25.9254 37.1973 25.9254C33.9471 25.9254 31.3157 25.0077 29.2971 23.1775C27.2786 21.3475 26.4753 18.0318 26.4753 15.2143V13.1934C26.4753 10.3864 27.274 6.95516 29.2852 5.12366C31.2991 3.28976 33.9232 2.37056 37.1613 2.37056C40.3753 2.37056 42.9933 3.28976 45.0133 5.12366C47.0304 6.95516 47.9081 10.3279 47.9081 13.1347V15.1558ZM42.1055 13.2624C42.1055 11.6256 41.6758 10.2862 40.8138 9.23725C39.9515 8.18785 38.7352 7.66481 37.1613 7.66481C35.5571 7.66481 34.3238 8.18396 33.4725 9.22661C32.6236 10.2663 32.1988 11.6148 32.1988 13.2624V14.9395C32.1988 16.5978 32.6296 17.9517 33.4905 18.9967C34.3538 20.0448 35.5932 20.5693 37.1973 20.5693C38.7592 20.5693 39.9686 20.0448 40.826 18.9967C41.6808 17.9517 42.1055 16.5978 42.1055 14.9395V13.2624ZM26.5255 25.9254V20.2308H15.3709C13.1984 20.2308 10.1108 10.8553 15.3709 7.6606L23.8342 7.59805L26.72 2.37296H14.4305C6.56331 2.11736 0.714486 22.8471 14.4305 25.9018L26.5255 25.9254Z" fill="#D9D9D9"/>
</svg>
